<svg width="1024" height="500" viewBox="0 0 1024 500" xmlns="http://www.w3.org/2000/svg">
  <defs>
    <radialGradient id="bg" cx="22%" cy="20%" r="85%">
      <stop offset="0%" stop-color="#2E2820"/>
      <stop offset="100%" stop-color="#1F1B16"/>
    </radialGradient>
    <linearGradient id="card" x1="0" y1="0" x2="1" y2="1">
      <stop offset="0%" stop-color="#2F2922"/>
      <stop offset="100%" stop-color="#27221C"/>
    </linearGradient>
  </defs>

  <rect width="1024" height="500" fill="url(#bg)"/>

  <rect x="72" y="86" width="76" height="76" rx="18" fill="#FFB956"/>
  <g transform="translate(110,124) scale(0.085) translate(-512,-512)">
    <g stroke="#1F1B16" stroke-width="40" stroke-linecap="round"><line x1="512" y1="330" x2="420" y2="226"/><line x1="512" y1="330" x2="604" y2="226"/></g>
    <rect x="222" y="318" width="580" height="420" rx="72" fill="#1F1B16"/>
    <path d="M395 525 L470 600 L630 440" fill="none" stroke="#FFB956" stroke-width="56" stroke-linecap="round" stroke-linejoin="round"/>
    <rect x="392" y="770" width="240" height="36" rx="18" fill="#1F1B16"/>
  </g>

  <text x="172" y="148" font-family="Menlo, 'SF Mono', Consolas, monospace" font-size="52" font-weight="700" letter-spacing="1" fill="#FFFFFF">FINALE</text>

  <text x="74" y="228" font-family="Helvetica Neue, Arial, sans-serif" font-size="30" font-weight="500" fill="#EAE1D9">Know when a season is ready.</text>
  <text x="74" y="270" font-family="Helvetica Neue, Arial, sans-serif" font-size="30" font-weight="500" fill="#EAE1D9">Then binge it.</text>

  <g font-family="Helvetica Neue, Arial, sans-serif" font-size="22" fill="#D3C4B4">
    <circle cx="82" cy="336" r="4" fill="#FFB956"/>
    <text x="98" y="343">See if a show was cancelled before you start</text>

    <circle cx="82" cy="374" r="4" fill="#FFB956"/>
    <text x="98" y="381">Seasons grouped by ready, airing, or waiting</text>

    <circle cx="82" cy="412" r="4" fill="#FFB956"/>
    <text x="98" y="419">No account, no ads</text>
  </g>

  <g transform="translate(690,140) rotate(4)">
    <rect x="18" y="30" width="280" height="160" rx="20" fill="#27221C" stroke="#3E372F" stroke-width="1"/>
  </g>
  <g transform="translate(690,140) rotate(4)">
    <rect x="0" y="0" width="280" height="160" rx="20" fill="url(#card)" stroke="#3E372F" stroke-width="1"/>
    <text x="24" y="40" font-family="Helvetica Neue, Arial, sans-serif" font-size="15" font-weight="700" fill="#FFB956">Ready to binge</text>
    <text x="24" y="74" font-family="Helvetica Neue, Arial, sans-serif" font-size="22" font-weight="700" fill="#EAE1D9">The Long Signal</text>
    <rect x="24" y="88" width="76" height="24" rx="12" fill="#643F00"/>
    <text x="38" y="105" font-family="Helvetica Neue, Arial, sans-serif" font-size="13" font-weight="600" fill="#FFDDB5">Ongoing</text>
    <text x="24" y="138" font-family="Helvetica Neue, Arial, sans-serif" font-size="15" fill="#D3C4B4">Season 2 to binge · 10 episodes</text>
  </g>
</svg>
